<svg width="24" height="24" viewBox="0 0 24 24" fill="none" xmlns="http://www.w3.org/2000/svg">
<path d="M3.84172 0.0566584C3.46016 0.229144 3.34517 0.490485 3.34517 1.16475V1.65607H2.78068C2.13255 1.65607 1.74576 1.7397 1.30148 1.97491C0.935603 2.17353 0.480869 2.63349 0.292703 3.00459C0.031361 3.52205 0 3.75726 0 5.27304V6.67383H11.7081H23.4162V5.27304C23.4162 3.72589 23.3849 3.50114 23.0974 2.95755C23.0085 2.79029 22.7994 2.52372 22.6374 2.37215C22.0938 1.85469 21.5398 1.65607 20.6408 1.65607H20.0815L20.0606 1.08634C20.0501 0.605476 20.0292 0.490485 19.9351 0.370268C19.7313 0.0932462 19.564 0.00961688 19.2347 0.00961688C18.9055 0.00961688 18.7382 0.0932462 18.5343 0.370268C18.4403 0.490485 18.4194 0.605476 18.4089 1.08634L18.388 1.65607H16.7259H15.0637L15.0428 1.08634C15.0271 0.469578 14.9801 0.349361 14.6665 0.11938C14.4626 -0.0321978 13.9713 -0.0321978 13.7675 0.11938C13.4539 0.349361 13.4068 0.469578 13.3911 1.08634L13.3702 1.65607H11.7081H10.046L10.0251 1.08634C10.0094 0.469578 9.96234 0.349361 9.64873 0.11938C9.44489 -0.0321978 8.95356 -0.0321978 8.74972 0.11938C8.43611 0.349361 8.38907 0.469578 8.37339 1.08634L8.35248 1.65607H6.69035H5.02821L5.00731 1.08634C4.99163 0.469578 4.94458 0.349361 4.64143 0.124607C4.46372 -0.00606362 4.0508 -0.0426514 3.84172 0.0566584Z" fill="#474747" fill-opacity="0.7"/>
<path d="M0.000115204 14.765C0.000115204 21.8265 -0.0155653 21.4658 0.318952 22.0983C0.517572 22.4642 0.977533 22.9189 1.34864 23.1071C1.96018 23.4155 1.35909 23.3998 11.7082 23.3998C22.1567 23.3998 21.4719 23.4207 22.1148 23.0809C22.7159 22.7569 23.2334 22.0513 23.3641 21.3665C23.3954 21.1836 23.4163 18.8315 23.4163 14.718V8.3465H11.7082H0.000115204V14.765Z" fill="#474747" fill-opacity="0.7"/>
</svg>
