<svg width="18" height="17" viewBox="0 0 18 17" fill="none" xmlns="http://www.w3.org/2000/svg">
<path d="M8.14537 0.0213245C6.46289 0.184345 4.93176 0.753253 3.56255 1.71807C3.11905 2.03413 2.16166 2.93573 1.83432 3.3516C0.964919 4.44949 0.405266 5.64719 0.158878 6.91809C-0.312778 9.3268 0.271513 11.6756 1.83432 13.6518C2.16166 14.0677 3.11905 14.9693 3.56255 15.2854C4.84377 16.1903 6.26578 16.7392 7.89898 16.9588C8.31432 17.0154 9.69761 17.0121 10.1341 16.9588C12.172 16.6927 13.9953 15.8376 15.3821 14.5002C15.8256 14.0744 15.9312 13.9612 16.2128 13.6086C17.128 12.4674 17.7263 11.0701 17.9551 9.5497C18.015 9.15713 18.015 7.84631 17.9551 7.45373C17.751 6.10964 17.2512 4.83542 16.512 3.79408C15.0653 1.75134 12.8408 0.427212 10.2573 0.0645748C9.82432 0.00468971 8.57478 -0.0219259 8.14537 0.0213245ZM9.33507 3.12537C9.4125 3.16196 9.51106 3.25512 9.55682 3.33164L9.64129 3.46804V5.8335V8.20229L11.19 9.37338C12.3516 10.2517 12.7528 10.5711 12.7986 10.6609C12.8303 10.7274 12.8584 10.8572 12.8584 10.9537C12.8584 11.2731 12.5839 11.5292 12.2354 11.5292C12.1404 11.5292 12.0137 11.506 11.9538 11.4793C11.7954 11.4061 8.55015 8.93755 8.46567 8.82443C8.39175 8.73128 8.39175 8.69135 8.38119 6.09966L8.37415 3.47137L8.45159 3.34162C8.57478 3.13202 8.85637 3.00227 9.09572 3.03887C9.15556 3.04552 9.26115 3.08544 9.33507 3.12537Z" fill="#616161"/>
</svg>
